<svg aria-hidden="true" xmlns="http://www.w3.org/2000/svg" viewBox="0 0 95 70" fill="none"><path fill="currentColor" d="M15.4 22.3L7.7 35.6H11.2L4.2 46.8H8.4L0 59.4H12.6V69.9H18.2V59.4H30.8L22.4 46.8H26.6L19.6 35.6H23.1L15.4 22.3Z"/><path fill="currentColor" d="M79.4 22.3L71.7 35.6H75.2L68.2 46.8H72.4L64 59.4H76.6V69.9H82.2V59.4H94.8L86.4 46.8H90.6L83.6 35.6H87.1L79.4 22.3Z"/><path fill="currentColor" d="M47.4004 0L36.4004 19H41.4004L31.4004 35H37.4004L25.4004 53H43.4004V68H51.4004V53H69.4004L57.4004 35H63.4004L53.4004 19H58.4004L47.4004 0Z"/></svg>
